<mxfile host="app.diagrams.net" agent="Mozilla/5.0 (Windows NT 10.0; Win64; x64) AppleWebKit/537.36 (KHTML, like Gecko) Chrome/134.0.0.0 Safari/537.36" version="26.1.2">
  <diagram name="PÃ¡gina-1" id="un6TtbEEBRCx6S0v3o0q">
    <mxGraphModel dx="819" dy="441" grid="1" gridSize="10" guides="1" tooltips="1" connect="1" arrows="1" fold="1" page="1" pageScale="1" pageWidth="827" pageHeight="1169" math="0" shadow="0">
      <root>
        <mxCell id="0" />
        <mxCell id="1" parent="0" />
        <mxCell id="HfJN3aSQDPHg7kx0F__F-1" value="Snoopy PetShop&lt;div&gt;MER - DER&lt;/div&gt;" style="text;html=1;align=center;verticalAlign=middle;whiteSpace=wrap;rounded=0;" parent="1" vertex="1">
          <mxGeometry x="349" y="20" width="130" height="50" as="geometry" />
        </mxCell>
        <mxCell id="HfJN3aSQDPHg7kx0F__F-2" value="Snoopy PetShop&lt;div&gt;Diagrama de Classes&lt;/div&gt;" style="text;html=1;align=center;verticalAlign=middle;whiteSpace=wrap;rounded=0;" parent="1" vertex="1">
          <mxGeometry x="343" y="290" width="130" height="50" as="geometry" />
        </mxCell>
        <mxCell id="HfJN3aSQDPHg7kx0F__F-5" value="Cliente" style="whiteSpace=wrap;html=1;align=center;fillColor=#e1d5e7;strokeColor=#9673a6;" parent="1" vertex="1">
          <mxGeometry x="226" y="90" width="100" height="40" as="geometry" />
        </mxCell>
        <mxCell id="HfJN3aSQDPHg7kx0F__F-6" value="Pedido" style="whiteSpace=wrap;html=1;align=center;fillColor=#e1d5e7;strokeColor=#9673a6;" parent="1" vertex="1">
          <mxGeometry x="516" y="90" width="100" height="40" as="geometry" />
        </mxCell>
        <mxCell id="HfJN3aSQDPHg7kx0F__F-7" value="Cliente" style="swimlane;fontStyle=1;align=center;verticalAlign=top;childLayout=stackLayout;horizontal=1;startSize=26;horizontalStack=0;resizeParent=1;resizeParentMax=0;resizeLast=0;collapsible=1;marginBottom=0;whiteSpace=wrap;html=1;fillColor=#e1d5e7;strokeColor=#9673a6;" parent="1" vertex="1">
          <mxGeometry x="328" y="360" width="160" height="108" as="geometry" />
        </mxCell>
        <mxCell id="HfJN3aSQDPHg7kx0F__F-8" value="+ id: int;&lt;div&gt;+ cpf: String;&lt;/div&gt;&lt;div&gt;+ nome: String;&lt;/div&gt;&lt;div&gt;+ telefones: List&amp;lt;Telefone&amp;gt;&lt;/div&gt;" style="text;strokeColor=none;fillColor=none;align=left;verticalAlign=top;spacingLeft=4;spacingRight=4;overflow=hidden;rotatable=0;points=[[0,0.5],[1,0.5]];portConstraint=eastwest;whiteSpace=wrap;html=1;" parent="HfJN3aSQDPHg7kx0F__F-7" vertex="1">
          <mxGeometry y="26" width="160" height="74" as="geometry" />
        </mxCell>
        <mxCell id="HfJN3aSQDPHg7kx0F__F-9" value="" style="line;strokeWidth=1;fillColor=none;align=left;verticalAlign=middle;spacingTop=-1;spacingLeft=3;spacingRight=3;rotatable=0;labelPosition=right;points=[];portConstraint=eastwest;strokeColor=inherit;" parent="HfJN3aSQDPHg7kx0F__F-7" vertex="1">
          <mxGeometry y="100" width="160" height="8" as="geometry" />
        </mxCell>
        <mxCell id="HfJN3aSQDPHg7kx0F__F-11" value="Pedido" style="swimlane;fontStyle=1;align=center;verticalAlign=top;childLayout=stackLayout;horizontal=1;startSize=26;horizontalStack=0;resizeParent=1;resizeParentMax=0;resizeLast=0;collapsible=1;marginBottom=0;whiteSpace=wrap;html=1;fillColor=#e1d5e7;strokeColor=#9673a6;" parent="1" vertex="1">
          <mxGeometry x="562" y="340" width="160" height="174" as="geometry" />
        </mxCell>
        <mxCell id="HfJN3aSQDPHg7kx0F__F-12" value="+ id: int;&lt;div&gt;+ clienteId: int;&lt;/div&gt;&lt;div&gt;+ data: Date;&lt;/div&gt;&lt;div&gt;+ produto: String;&lt;/div&gt;&lt;div&gt;+ qtd: int;&lt;/div&gt;&lt;div&gt;+ preco: Float;&lt;/div&gt;&lt;div&gt;+ subTotal: Float?;&lt;/div&gt;&lt;div&gt;&lt;br&gt;&lt;/div&gt;" style="text;strokeColor=none;fillColor=none;align=left;verticalAlign=top;spacingLeft=4;spacingRight=4;overflow=hidden;rotatable=0;points=[[0,0.5],[1,0.5]];portConstraint=eastwest;whiteSpace=wrap;html=1;" parent="HfJN3aSQDPHg7kx0F__F-11" vertex="1">
          <mxGeometry y="26" width="160" height="114" as="geometry" />
        </mxCell>
        <mxCell id="HfJN3aSQDPHg7kx0F__F-13" value="" style="line;strokeWidth=1;fillColor=none;align=left;verticalAlign=middle;spacingTop=-1;spacingLeft=3;spacingRight=3;rotatable=0;labelPosition=right;points=[];portConstraint=eastwest;strokeColor=inherit;" parent="HfJN3aSQDPHg7kx0F__F-11" vertex="1">
          <mxGeometry y="140" width="160" height="8" as="geometry" />
        </mxCell>
        <mxCell id="HfJN3aSQDPHg7kx0F__F-14" value="+ calcSubtotal(type): Float" style="text;strokeColor=none;fillColor=none;align=left;verticalAlign=top;spacingLeft=4;spacingRight=4;overflow=hidden;rotatable=0;points=[[0,0.5],[1,0.5]];portConstraint=eastwest;whiteSpace=wrap;html=1;" parent="HfJN3aSQDPHg7kx0F__F-11" vertex="1">
          <mxGeometry y="148" width="160" height="26" as="geometry" />
        </mxCell>
        <mxCell id="HfJN3aSQDPHg7kx0F__F-15" value="1..*" style="endArrow=diamondThin;endFill=1;endSize=24;html=1;rounded=0;exitX=0;exitY=0.5;exitDx=0;exitDy=0;entryX=1;entryY=0.5;entryDx=0;entryDy=0;" parent="1" source="HfJN3aSQDPHg7kx0F__F-12" target="HfJN3aSQDPHg7kx0F__F-8" edge="1">
          <mxGeometry x="0.2606" y="-13" width="160" relative="1" as="geometry">
            <mxPoint x="359.5" y="260" as="sourcePoint" />
            <mxPoint x="519.5" y="260" as="targetPoint" />
            <mxPoint as="offset" />
          </mxGeometry>
        </mxCell>
        <mxCell id="HfJN3aSQDPHg7kx0F__F-17" value="1" style="edgeStyle=orthogonalEdgeStyle;rounded=0;orthogonalLoop=1;jettySize=auto;html=1;exitX=0;exitY=0.5;exitDx=0;exitDy=0;entryX=1;entryY=0.5;entryDx=0;entryDy=0;endArrow=none;startFill=0;fillColor=#fff2cc;strokeColor=#d6b656;" parent="1" source="HfJN3aSQDPHg7kx0F__F-16" target="HfJN3aSQDPHg7kx0F__F-5" edge="1">
          <mxGeometry relative="1" as="geometry" />
        </mxCell>
        <mxCell id="HfJN3aSQDPHg7kx0F__F-16" value="faz" style="shape=rhombus;perimeter=rhombusPerimeter;whiteSpace=wrap;html=1;align=center;fillColor=#fff2cc;strokeColor=#d6b656;" parent="1" vertex="1">
          <mxGeometry x="387" y="95" width="60" height="30" as="geometry" />
        </mxCell>
        <mxCell id="HfJN3aSQDPHg7kx0F__F-18" value="N" style="edgeStyle=orthogonalEdgeStyle;rounded=0;orthogonalLoop=1;jettySize=auto;html=1;exitX=1;exitY=0.5;exitDx=0;exitDy=0;entryX=0;entryY=0.5;entryDx=0;entryDy=0;endArrow=none;startFill=0;fillColor=#fff2cc;strokeColor=#d6b656;" parent="1" source="HfJN3aSQDPHg7kx0F__F-16" target="HfJN3aSQDPHg7kx0F__F-6" edge="1">
          <mxGeometry relative="1" as="geometry" />
        </mxCell>
        <mxCell id="HfJN3aSQDPHg7kx0F__F-19" value="nome" style="ellipse;whiteSpace=wrap;html=1;align=center;fillColor=#d5e8d4;strokeColor=#82b366;" parent="1" vertex="1">
          <mxGeometry x="250" y="210" width="60" height="30" as="geometry" />
        </mxCell>
        <mxCell id="HfJN3aSQDPHg7kx0F__F-24" style="rounded=0;orthogonalLoop=1;jettySize=auto;html=1;exitX=1;exitY=0;exitDx=0;exitDy=0;entryX=0.5;entryY=1;entryDx=0;entryDy=0;endArrow=none;startFill=0;" parent="1" source="HfJN3aSQDPHg7kx0F__F-20" target="HfJN3aSQDPHg7kx0F__F-5" edge="1">
          <mxGeometry relative="1" as="geometry" />
        </mxCell>
        <mxCell id="HfJN3aSQDPHg7kx0F__F-20" value="id" style="ellipse;whiteSpace=wrap;html=1;align=center;fontStyle=4;fillColor=#ffe6cc;strokeColor=#d79b00;" parent="1" vertex="1">
          <mxGeometry x="120" y="170" width="61" height="30" as="geometry" />
        </mxCell>
        <mxCell id="HfJN3aSQDPHg7kx0F__F-22" value="telefones" style="ellipse;shape=doubleEllipse;margin=3;whiteSpace=wrap;html=1;align=center;fillColor=#d5e8d4;strokeColor=#82b366;" parent="1" vertex="1">
          <mxGeometry x="326" y="190" width="71" height="30" as="geometry" />
        </mxCell>
        <mxCell id="HfJN3aSQDPHg7kx0F__F-23" value="cpf" style="ellipse;whiteSpace=wrap;html=1;align=center;fillColor=#d5e8d4;strokeColor=#82b366;" parent="1" vertex="1">
          <mxGeometry x="170" y="210" width="60" height="30" as="geometry" />
        </mxCell>
        <mxCell id="HfJN3aSQDPHg7kx0F__F-25" style="rounded=0;orthogonalLoop=1;jettySize=auto;html=1;exitX=0.5;exitY=0;exitDx=0;exitDy=0;entryX=0.5;entryY=1;entryDx=0;entryDy=0;endArrow=none;startFill=0;" parent="1" source="HfJN3aSQDPHg7kx0F__F-23" target="HfJN3aSQDPHg7kx0F__F-5" edge="1">
          <mxGeometry relative="1" as="geometry" />
        </mxCell>
        <mxCell id="HfJN3aSQDPHg7kx0F__F-26" style="rounded=0;orthogonalLoop=1;jettySize=auto;html=1;exitX=0.5;exitY=0;exitDx=0;exitDy=0;entryX=0.5;entryY=1;entryDx=0;entryDy=0;endArrow=none;startFill=0;" parent="1" source="HfJN3aSQDPHg7kx0F__F-19" target="HfJN3aSQDPHg7kx0F__F-5" edge="1">
          <mxGeometry relative="1" as="geometry" />
        </mxCell>
        <mxCell id="HfJN3aSQDPHg7kx0F__F-27" style="rounded=0;orthogonalLoop=1;jettySize=auto;html=1;exitX=0.5;exitY=0;exitDx=0;exitDy=0;entryX=0.5;entryY=1;entryDx=0;entryDy=0;endArrow=none;startFill=0;" parent="1" source="HfJN3aSQDPHg7kx0F__F-22" target="HfJN3aSQDPHg7kx0F__F-5" edge="1">
          <mxGeometry relative="1" as="geometry" />
        </mxCell>
        <mxCell id="HfJN3aSQDPHg7kx0F__F-28" value="data" style="ellipse;whiteSpace=wrap;html=1;align=center;fillColor=#d5e8d4;strokeColor=#82b366;" parent="1" vertex="1">
          <mxGeometry x="473" y="230" width="60" height="30" as="geometry" />
        </mxCell>
        <mxCell id="HfJN3aSQDPHg7kx0F__F-29" value="id" style="ellipse;whiteSpace=wrap;html=1;align=center;fontStyle=4;fillColor=#ffe6cc;strokeColor=#d79b00;" parent="1" vertex="1">
          <mxGeometry x="417" y="160" width="61" height="30" as="geometry" />
        </mxCell>
        <mxCell id="HfJN3aSQDPHg7kx0F__F-32" value="&lt;span style=&quot;border-bottom: 1px dotted&quot;&gt;clienteId&lt;/span&gt;" style="ellipse;whiteSpace=wrap;html=1;align=center;fillColor=#dae8fc;strokeColor=#6c8ebf;" parent="1" vertex="1">
          <mxGeometry x="430" y="200" width="80" height="30" as="geometry" />
        </mxCell>
        <mxCell id="HfJN3aSQDPHg7kx0F__F-33" value="produto" style="ellipse;whiteSpace=wrap;html=1;align=center;fillColor=#d5e8d4;strokeColor=#82b366;" parent="1" vertex="1">
          <mxGeometry x="543" y="240" width="60" height="30" as="geometry" />
        </mxCell>
        <mxCell id="HfJN3aSQDPHg7kx0F__F-34" value="qtd" style="ellipse;whiteSpace=wrap;html=1;align=center;fillColor=#d5e8d4;strokeColor=#82b366;" parent="1" vertex="1">
          <mxGeometry x="582" y="210" width="60" height="30" as="geometry" />
        </mxCell>
        <mxCell id="HfJN3aSQDPHg7kx0F__F-35" value="preco" style="ellipse;whiteSpace=wrap;html=1;align=center;fillColor=#d5e8d4;strokeColor=#82b366;" parent="1" vertex="1">
          <mxGeometry x="623" y="180" width="60" height="30" as="geometry" />
        </mxCell>
        <mxCell id="HfJN3aSQDPHg7kx0F__F-36" value="subTotal" style="ellipse;whiteSpace=wrap;html=1;align=center;dashed=1;fillColor=#f5f5f5;strokeColor=#666666;fontColor=#333333;" parent="1" vertex="1">
          <mxGeometry x="642" y="140" width="80" height="30" as="geometry" />
        </mxCell>
        <mxCell id="HfJN3aSQDPHg7kx0F__F-37" style="rounded=0;orthogonalLoop=1;jettySize=auto;html=1;entryX=0.5;entryY=1;entryDx=0;entryDy=0;endArrow=none;startFill=0;" parent="1" source="HfJN3aSQDPHg7kx0F__F-29" target="HfJN3aSQDPHg7kx0F__F-6" edge="1">
          <mxGeometry relative="1" as="geometry" />
        </mxCell>
        <mxCell id="HfJN3aSQDPHg7kx0F__F-38" style="rounded=0;orthogonalLoop=1;jettySize=auto;html=1;entryX=0.5;entryY=1;entryDx=0;entryDy=0;endArrow=none;startFill=0;exitX=0.5;exitY=0;exitDx=0;exitDy=0;" parent="1" source="HfJN3aSQDPHg7kx0F__F-32" target="HfJN3aSQDPHg7kx0F__F-6" edge="1">
          <mxGeometry relative="1" as="geometry" />
        </mxCell>
        <mxCell id="HfJN3aSQDPHg7kx0F__F-39" style="rounded=0;orthogonalLoop=1;jettySize=auto;html=1;entryX=0.5;entryY=1;entryDx=0;entryDy=0;endArrow=none;startFill=0;exitX=0.5;exitY=0;exitDx=0;exitDy=0;" parent="1" source="HfJN3aSQDPHg7kx0F__F-28" target="HfJN3aSQDPHg7kx0F__F-6" edge="1">
          <mxGeometry relative="1" as="geometry" />
        </mxCell>
        <mxCell id="HfJN3aSQDPHg7kx0F__F-40" style="rounded=0;orthogonalLoop=1;jettySize=auto;html=1;entryX=0.5;entryY=1;entryDx=0;entryDy=0;endArrow=none;startFill=0;exitX=0.5;exitY=0;exitDx=0;exitDy=0;" parent="1" source="HfJN3aSQDPHg7kx0F__F-33" target="HfJN3aSQDPHg7kx0F__F-6" edge="1">
          <mxGeometry relative="1" as="geometry" />
        </mxCell>
        <mxCell id="HfJN3aSQDPHg7kx0F__F-41" style="rounded=0;orthogonalLoop=1;jettySize=auto;html=1;entryX=0.5;entryY=1;entryDx=0;entryDy=0;endArrow=none;startFill=0;exitX=0.5;exitY=0;exitDx=0;exitDy=0;" parent="1" source="HfJN3aSQDPHg7kx0F__F-34" target="HfJN3aSQDPHg7kx0F__F-6" edge="1">
          <mxGeometry relative="1" as="geometry" />
        </mxCell>
        <mxCell id="HfJN3aSQDPHg7kx0F__F-42" style="rounded=0;orthogonalLoop=1;jettySize=auto;html=1;entryX=0.5;entryY=1;entryDx=0;entryDy=0;endArrow=none;startFill=0;exitX=0.5;exitY=0;exitDx=0;exitDy=0;" parent="1" source="HfJN3aSQDPHg7kx0F__F-35" target="HfJN3aSQDPHg7kx0F__F-6" edge="1">
          <mxGeometry relative="1" as="geometry" />
        </mxCell>
        <mxCell id="HfJN3aSQDPHg7kx0F__F-43" style="rounded=0;orthogonalLoop=1;jettySize=auto;html=1;entryX=0.5;entryY=1;entryDx=0;entryDy=0;endArrow=none;startFill=0;exitX=0;exitY=0.5;exitDx=0;exitDy=0;" parent="1" source="HfJN3aSQDPHg7kx0F__F-36" target="HfJN3aSQDPHg7kx0F__F-6" edge="1">
          <mxGeometry relative="1" as="geometry" />
        </mxCell>
        <mxCell id="HfJN3aSQDPHg7kx0F__F-44" value="Telefone" style="swimlane;fontStyle=1;align=center;verticalAlign=top;childLayout=stackLayout;horizontal=1;startSize=26;horizontalStack=0;resizeParent=1;resizeParentMax=0;resizeLast=0;collapsible=1;marginBottom=0;whiteSpace=wrap;html=1;fillColor=#e1d5e7;strokeColor=#9673a6;" parent="1" vertex="1">
          <mxGeometry x="90.5" y="360" width="160" height="108" as="geometry" />
        </mxCell>
        <mxCell id="HfJN3aSQDPHg7kx0F__F-45" value="+ id: int;&lt;div&gt;+ clienteId: int;&lt;/div&gt;&lt;div&gt;+ numero: String;&lt;/div&gt;&lt;div&gt;+ tipo: String&lt;/div&gt;" style="text;strokeColor=none;fillColor=none;align=left;verticalAlign=top;spacingLeft=4;spacingRight=4;overflow=hidden;rotatable=0;points=[[0,0.5],[1,0.5]];portConstraint=eastwest;whiteSpace=wrap;html=1;" parent="HfJN3aSQDPHg7kx0F__F-44" vertex="1">
          <mxGeometry y="26" width="160" height="74" as="geometry" />
        </mxCell>
        <mxCell id="HfJN3aSQDPHg7kx0F__F-46" value="" style="line;strokeWidth=1;fillColor=none;align=left;verticalAlign=middle;spacingTop=-1;spacingLeft=3;spacingRight=3;rotatable=0;labelPosition=right;points=[];portConstraint=eastwest;strokeColor=inherit;" parent="HfJN3aSQDPHg7kx0F__F-44" vertex="1">
          <mxGeometry y="100" width="160" height="8" as="geometry" />
        </mxCell>
        <mxCell id="HfJN3aSQDPHg7kx0F__F-49" value="numero" style="ellipse;whiteSpace=wrap;html=1;align=center;fillColor=#d5e8d4;strokeColor=#82b366;" parent="1" vertex="1">
          <mxGeometry x="300" y="250" width="60" height="30" as="geometry" />
        </mxCell>
        <mxCell id="HfJN3aSQDPHg7kx0F__F-50" value="tipo" style="ellipse;whiteSpace=wrap;html=1;align=center;fillColor=#d5e8d4;strokeColor=#82b366;" parent="1" vertex="1">
          <mxGeometry x="370" y="250" width="60" height="30" as="geometry" />
        </mxCell>
        <mxCell id="HfJN3aSQDPHg7kx0F__F-53" style="rounded=0;orthogonalLoop=1;jettySize=auto;html=1;exitX=0.5;exitY=0;exitDx=0;exitDy=0;entryX=0.5;entryY=1;entryDx=0;entryDy=0;endArrow=none;startFill=0;fillColor=#d5e8d4;strokeColor=#82b366;" parent="1" source="HfJN3aSQDPHg7kx0F__F-49" target="HfJN3aSQDPHg7kx0F__F-22" edge="1">
          <mxGeometry relative="1" as="geometry" />
        </mxCell>
        <mxCell id="HfJN3aSQDPHg7kx0F__F-54" style="rounded=0;orthogonalLoop=1;jettySize=auto;html=1;exitX=0.5;exitY=0;exitDx=0;exitDy=0;entryX=0.5;entryY=1;entryDx=0;entryDy=0;endArrow=none;startFill=0;fillColor=#d5e8d4;strokeColor=#82b366;" parent="1" source="HfJN3aSQDPHg7kx0F__F-50" target="HfJN3aSQDPHg7kx0F__F-22" edge="1">
          <mxGeometry relative="1" as="geometry" />
        </mxCell>
        <mxCell id="62Fx6C54-tJbMOg-g6ib-1" value="*..1" style="endArrow=diamondThin;endFill=0;endSize=24;html=1;rounded=0;exitX=1;exitY=0.5;exitDx=0;exitDy=0;entryX=0;entryY=0.5;entryDx=0;entryDy=0;" edge="1" parent="1" source="HfJN3aSQDPHg7kx0F__F-45" target="HfJN3aSQDPHg7kx0F__F-8">
          <mxGeometry width="160" relative="1" as="geometry">
            <mxPoint x="270" y="420" as="sourcePoint" />
            <mxPoint x="430" y="420" as="targetPoint" />
          </mxGeometry>
        </mxCell>
      </root>
    </mxGraphModel>
  </diagram>
</mxfile>
